<?xml version="1.0" encoding="UTF-8"?> <svg xmlns="http://www.w3.org/2000/svg" width="220" height="58" viewBox="0 0 220 58" fill="none"><rect x="11.668" y="41.6992" width="1.77518" height="10.6658" rx="0.887588" transform="rotate(-135 11.668 41.6992)" fill="#FFB400"></rect><rect x="11.6797" y="22.8555" width="1.77518" height="10.6658" rx="0.887588" transform="rotate(-135 11.6797 22.8555)" fill="#00A6ED"></rect><rect x="9.78906" y="37.3008" width="1.77763" height="10.6511" rx="0.888814" transform="rotate(135 9.78906 37.3008)" fill="#7FB800"></rect><rect x="28.6289" y="37.2891" width="1.77763" height="10.6511" rx="0.888814" transform="rotate(135 28.6289 37.2891)" fill="#FF595E"></rect><rect x="14.8047" y="44.8359" width="1.77518" height="10.6658" rx="0.887588" transform="rotate(-135 14.8047 44.8359)" fill="#FFB400"></rect><rect x="14.8203" y="25.9922" width="1.77518" height="10.6658" rx="0.887588" transform="rotate(-135 14.8203 25.9922)" fill="#00A6ED"></rect><rect x="12.9414" y="34.1719" width="1.77763" height="10.6511" rx="0.888814" transform="rotate(135 12.9414 34.1719)" fill="#7FB800"></rect><rect x="31.7852" y="34.1602" width="1.77763" height="10.6511" rx="0.888814" transform="rotate(135 31.7852 34.1602)" fill="#FF595E"></rect><rect x="17.9453" y="47.9766" width="1.77518" height="10.6658" rx="0.887588" transform="rotate(-135 17.9453 47.9766)" fill="#FFB400"></rect><rect x="17.957" y="29.1289" width="1.77518" height="10.6658" rx="0.887588" transform="rotate(-135 17.957 29.1289)" fill="#00A6ED"></rect><rect x="16.0938" y="31.043" width="1.77763" height="10.6511" rx="0.888814" transform="rotate(135 16.0938 31.043)" fill="#7FB800"></rect><rect x="34.9375" y="31.0312" width="1.77763" height="10.6511" rx="0.888814" transform="rotate(135 34.9375 31.0312)" fill="#FF595E"></rect><path d="M64.0852 43L57.2511 32.0499H54.1059V43H49.6793V15.586H59.3479C62.4802 15.586 64.8489 16.3497 66.4538 17.877C68.0847 19.4043 68.9001 21.4235 68.9001 23.9345C68.9001 26.0831 68.2918 27.8434 67.0751 29.2153C65.8843 30.5873 64.1499 31.4675 61.8719 31.8558L69.0554 43H64.0852ZM54.1059 28.9047H58.9985C62.5708 28.9047 64.357 27.3256 64.357 24.1674C64.357 22.666 63.9169 21.5011 63.0368 20.6727C62.1825 19.8185 60.8364 19.3914 58.9985 19.3914H54.1059V28.9047ZM92.6119 21.6047V43H88.1465V38.3404C87.6028 39.9195 86.658 41.1491 85.3119 42.0292C83.9658 42.8835 82.3996 43.3106 80.6134 43.3106C78.1283 43.3106 76.135 42.5082 74.6336 40.9032C73.1322 39.2982 72.3815 37.0072 72.3815 34.0303V21.6047H76.8081V33.5643C76.8081 35.5058 77.2999 37.0072 78.2836 38.0686C79.2673 39.1041 80.6134 39.6218 82.322 39.6218C84.0822 39.6218 85.4931 39.0523 86.5544 37.9133C87.6158 36.7743 88.1465 35.1175 88.1465 32.943V21.6047H92.6119ZM110.184 21.3329C112.048 21.3329 113.704 21.7729 115.154 22.6531C116.629 23.5332 117.781 24.8017 118.61 26.4584C119.438 28.1152 119.852 30.0567 119.852 32.2829C119.852 34.5351 119.438 36.4895 118.61 38.1462C117.781 39.803 116.629 41.0714 115.154 41.9516C113.704 42.8317 112.048 43.2718 110.184 43.2718C108.242 43.2718 106.585 42.7929 105.213 41.8351C103.841 40.8773 102.884 39.6088 102.34 38.0298V43H97.9134V14.2658H102.34V26.5749C102.884 24.9958 103.841 23.7274 105.213 22.7696C106.585 21.8118 108.242 21.3329 110.184 21.3329ZM108.825 25.2159C107.582 25.2159 106.469 25.5136 105.485 26.1089C104.502 26.6785 103.725 27.5068 103.155 28.5941C102.586 29.6554 102.301 30.885 102.301 32.2829C102.301 33.7067 102.586 34.9492 103.155 36.0106C103.725 37.072 104.502 37.9003 105.485 38.4957C106.469 39.0652 107.582 39.35 108.825 39.35C110.792 39.35 112.371 38.7287 113.562 37.4861C114.753 36.2177 115.348 34.4833 115.348 32.2829C115.348 30.1084 114.753 28.387 113.562 27.1185C112.371 25.8501 110.792 25.2159 108.825 25.2159ZM123.495 15.3919C123.495 14.6412 123.754 14.0199 124.271 13.528C124.789 13.0362 125.475 12.7903 126.329 12.7903C127.184 12.7903 127.87 13.0362 128.387 13.528C128.931 14.0199 129.203 14.6412 129.203 15.3919C129.203 16.1426 128.931 16.7509 128.387 17.2169C127.87 17.6828 127.184 17.9158 126.329 17.9158C125.475 17.9158 124.789 17.6828 124.271 17.2169C123.754 16.7509 123.495 16.1426 123.495 15.3919ZM128.543 21.6047V43H124.116V21.6047H128.543ZM143.413 21.3329C146.183 21.3329 148.474 22.0706 150.286 23.5462C152.098 24.9958 153.224 26.9762 153.664 29.4872H148.965C148.707 28.1411 148.072 27.0926 147.063 26.3419C146.079 25.5653 144.837 25.177 143.335 25.177C141.627 25.177 140.203 25.7854 139.064 27.002C137.925 28.1928 137.355 29.9531 137.355 32.2829C137.355 34.6127 137.925 36.386 139.064 37.6026C140.203 38.8193 141.627 39.4276 143.335 39.4276C144.837 39.4276 146.079 39.0393 147.063 38.2627C148.072 37.4861 148.707 36.4248 148.965 35.0787H153.664C153.224 37.5897 152.098 39.583 150.286 41.0585C148.474 42.534 146.183 43.2718 143.413 43.2718C141.342 43.2718 139.504 42.8317 137.899 41.9516C136.32 41.0714 135.077 39.803 134.171 38.1462C133.265 36.4895 132.812 34.5351 132.812 32.2829C132.812 30.0567 133.265 28.1152 134.171 26.4584C135.077 24.8017 136.32 23.5332 137.899 22.6531C139.504 21.7729 141.342 21.3329 143.413 21.3329ZM170.056 43L162.367 33.4866V43H157.941V14.2658H162.367V30.7297L169.978 21.6047H175.298L165.978 32.2441L175.531 43H170.056ZM181.912 38.1074V43H176.903V38.1074H181.912ZM194.393 21.3329C196.335 21.3329 197.991 21.8118 199.363 22.7696C200.735 23.7274 201.706 24.9958 202.276 26.5749V21.6047H206.702V43H202.276V38.0298C201.706 39.6088 200.735 40.8773 199.363 41.8351C197.991 42.7929 196.335 43.2718 194.393 43.2718C192.529 43.2718 190.86 42.8317 189.384 41.9516C187.934 41.0714 186.795 39.803 185.967 38.1462C185.139 36.4895 184.725 34.5351 184.725 32.2829C184.725 30.0567 185.139 28.1152 185.967 26.4584C186.795 24.8017 187.934 23.5332 189.384 22.6531C190.86 21.7729 192.529 21.3329 194.393 21.3329ZM195.752 25.2159C193.785 25.2159 192.206 25.8501 191.015 27.1185C189.85 28.3611 189.268 30.0826 189.268 32.2829C189.268 34.4833 189.85 36.2177 191.015 37.4861C192.206 38.7287 193.785 39.35 195.752 39.35C196.995 39.35 198.108 39.0652 199.092 38.4957C200.075 37.9003 200.852 37.072 201.421 36.0106C201.991 34.9492 202.276 33.7067 202.276 32.2829C202.276 30.885 201.991 29.6554 201.421 28.5941C200.852 27.5068 200.075 26.6785 199.092 26.1089C198.108 25.5136 196.995 25.2159 195.752 25.2159ZM211.393 15.3919C211.393 14.6412 211.652 14.0199 212.17 13.528C212.688 13.0362 213.374 12.7903 214.228 12.7903C215.082 12.7903 215.768 13.0362 216.286 13.528C216.829 14.0199 217.101 14.6412 217.101 15.3919C217.101 16.1426 216.829 16.7509 216.286 17.2169C215.768 17.6828 215.082 17.9158 214.228 17.9158C213.374 17.9158 212.688 17.6828 212.17 17.2169C211.652 16.7509 211.393 16.1426 211.393 15.3919ZM216.441 21.6047V43H212.014V21.6047H216.441Z" fill="#00235B"></path></svg> 